<?xml version="1.0" encoding="UTF-8"?>
<svg xmlns="http://www.w3.org/2000/svg" xmlns:xlink="http://www.w3.org/1999/xlink" width="25px" height="25px" viewBox="0 0 25 25" version="1.1">
<g id="surface1">
<path style="fill:none;stroke-width:1.5;stroke-linecap:round;stroke-linejoin:round;stroke:rgb(10.980392%,15.294118%,29.803922%);stroke-opacity:1;stroke-miterlimit:4;" d="M 12.000002 15.000002 L 12.000002 1.99875 M 12.000002 1.99875 L 15.000002 5.497501 M 12.000002 1.99875 L 9.000001 5.497501 " transform="matrix(1.041667,0,0,1.041667,0,0)"/>
<path style="fill:none;stroke-width:1.5;stroke-linecap:round;stroke-linejoin:miter;stroke:rgb(10.980392%,15.294118%,29.803922%);stroke-opacity:1;stroke-miterlimit:4;" d="M 7.998751 21.997504 L 15.997503 21.997504 C 18.828753 21.997504 20.242503 21.997504 21.120003 21.120003 C 21.997504 20.242503 21.997504 18.828753 21.997504 15.997503 L 21.997504 15.000002 C 21.997504 12.168752 21.997504 10.755002 21.120003 9.877502 C 20.351253 9.108751 19.173753 9.015001 16.998753 9.000001 M 6.997501 9.000001 C 4.822501 9.015001 3.645001 9.108751 2.87625 9.877502 C 1.99875 10.755002 1.99875 12.168752 1.99875 15.000002 L 1.99875 15.997503 C 1.99875 18.828753 1.99875 20.242503 2.87625 21.120003 C 3.176251 21.420003 3.540001 21.618753 3.997501 21.746253 " transform="matrix(1.041667,0,0,1.041667,0,0)"/>
</g>
</svg>
