<?xml version="1.0" encoding="utf-8"?>
<svg version="1.0" width="489.000000pt" height="384.000000pt" viewBox="0 0 489.000000 384.000000" preserveAspectRatio="xMidYMid meet" xmlns="http://www.w3.org/2000/svg">
  <g transform="translate(0.000000,384.000000) scale(0.100000,-0.100000)" fill="#000000" stroke="none">
    <path d="M 2661.346 3743.869 C 2647.314 3736.889 2612.233 3722.927 2585.923 3713.154 C 2515.762 3688.024 2436.83 3595.879 2424.552 3526.073 C 2403.503 3422.76 2484.189 3315.258 2617.496 3266.393 C 2764.833 3211.944 2949.007 3251.036 3054.249 3355.746 C 3099.854 3401.818 3108.623 3421.364 3108.623 3488.378 C 3108.623 3588.899 3057.757 3658.706 2950.762 3708.965 C 2868.322 3746.662 2708.704 3766.207 2661.346 3743.869 Z M 2815.701 3685.232 C 2975.317 3640.556 2989.35 3375.291 2834.995 3309.674 C 2747.294 3271.978 2624.511 3327.823 2591.185 3422.76 C 2552.597 3526.073 2624.511 3669.875 2724.491 3690.816 C 2742.031 3693.608 2757.818 3697.797 2759.572 3699.194 C 2761.326 3699.194 2785.882 3693.608 2815.701 3685.232 Z" style="fill: rgb(43, 62, 121);"/>
    <path d="M 293.405 3729.908 C 151.327 3693.608 96.953 3650.329 67.134 3547.016 C 30.299 3415.778 102.215 3305.485 253.061 3259.413 C 344.271 3231.49 568.788 3238.47 593.344 3269.185 C 602.114 3280.355 609.13 3334.803 609.13 3390.648 L 609.13 3491.169 L 528.444 3491.169 L 449.514 3491.169 L 451.267 3411.591 C 454.775 3297.108 454.775 3295.712 416.187 3295.712 C 361.811 3295.712 284.634 3332.011 253.061 3371.103 C 237.276 3390.648 219.735 3439.513 214.473 3480.001 C 202.195 3566.561 239.03 3640.556 310.945 3669.875 C 354.795 3688.024 451.267 3686.628 509.15 3665.686 C 537.215 3655.913 540.722 3660.102 535.461 3695.005 C 530.198 3734.096 526.691 3735.493 433.727 3738.284 C 381.106 3739.681 317.96 3735.493 293.405 3729.908 Z" style="fill: rgb(43, 62, 121);"/>
    <path d="M 1354.593 3731.304 L 1284.432 3727.116 L 1289.694 3535.846 C 1294.956 3329.219 1307.234 3291.524 1384.412 3259.413 C 1449.31 3232.886 1501.931 3234.283 1572.093 3269.185 C 1626.468 3294.315 1633.485 3295.712 1647.516 3276.166 C 1658.04 3260.809 1687.859 3253.828 1736.971 3253.828 L 1810.642 3253.828 L 1810.642 3491.169 L 1810.642 3728.511 L 1728.202 3728.511 L 1644.009 3728.511 L 1644.009 3549.807 C 1644.009 3354.349 1626.468 3309.674 1547.536 3309.674 C 1463.343 3309.674 1451.065 3337.596 1451.065 3540.034 C 1451.065 3643.347 1445.803 3728.511 1438.786 3731.304 C 1430.016 3734.096 1393.181 3734.096 1354.593 3731.304 Z" style="fill: rgb(43, 62, 121);"/>
    <path d="M 670.522 3491.169 L 670.522 3253.828 L 758.223 3253.828 L 845.925 3253.828 L 845.925 3340.387 C 845.925 3386.461 854.694 3428.344 863.464 3429.74 C 873.988 3432.533 900.299 3403.214 924.856 3364.122 C 949.411 3325.03 984.492 3283.146 1003.786 3273.373 C 1037.113 3255.224 1187.96 3245.451 1187.96 3262.205 C 1187.96 3266.393 1168.666 3290.128 1144.11 3315.258 C 1119.553 3340.387 1100.259 3368.31 1100.259 3376.688 C 1100.259 3386.461 1094.996 3393.441 1087.981 3393.441 C 1079.211 3393.441 1059.915 3412.987 1044.13 3436.721 L 1012.558 3478.605 L 1073.948 3524.677 C 1140.601 3574.938 1149.371 3611.237 1109.029 3671.27 C 1075.702 3724.324 1056.408 3728.511 849.432 3728.511 L 670.522 3728.511 L 670.522 3491.169 Z M 926.609 3658.706 C 979.231 3634.971 972.214 3540.034 916.085 3510.715 C 856.449 3480.001 837.155 3495.358 837.155 3580.522 C 837.155 3675.459 852.94 3689.421 926.609 3658.706 Z" style="fill: rgb(43, 62, 121);"/>
    <path d="M 1936.931 3488.378 C 1938.685 3326.427 1945.701 3246.847 1957.979 3248.243 C 1968.503 3249.64 2007.093 3251.036 2043.928 3251.036 L 2108.827 3253.828 L 2108.827 3459.059 C 2108.827 3676.855 2117.597 3700.589 2186.004 3646.14 C 2228.101 3612.633 2233.362 3555.392 2198.282 3502.339 C 2170.217 3460.455 2178.987 3456.266 2247.395 3477.209 C 2366.668 3513.508 2405.258 3626.594 2319.311 3693.608 C 2280.721 3725.72 2264.936 3728.511 2105.318 3728.511 L 1933.423 3728.511 L 1936.931 3488.378 Z" style="fill: rgb(43, 62, 121);"/>
    <path d="M 1214.27 3009.505 C 649.472 2925.737 191.671 2540.406 100.461 2072.703 C 89.937 2018.254 84.675 1824.191 86.428 1620.357 L 91.691 1264.345 L 275.864 1264.345 L 460.038 1264.345 L 463.545 1620.357 C 467.054 1815.815 468.808 1990.331 468.808 2008.481 L 468.808 2039.196 L 807.335 2036.403 L 1144.11 2032.216 L 1145.864 1969.389 L 1145.864 1906.564 L 1324.774 1902.375 L 1503.685 1898.187 L 1503.685 2465.015 L 1503.685 3030.447 L 1421.247 3029.051 C 1373.887 3027.655 1282.677 3019.278 1214.27 3009.505 Z M 1144.11 2471.996 L 1144.11 2269.557 L 849.432 2262.576 C 686.307 2258.388 549.494 2259.784 545.985 2263.972 C 533.707 2282.122 645.965 2442.677 717.88 2506.898 C 828.383 2607.42 1000.279 2684.208 1100.259 2677.226 L 1144.11 2674.435 L 1144.11 2471.996 Z" style="fill: rgb(43, 62, 121);"/>
    <path d="M 2057.959 2981.582 C 2077.254 2957.849 2082.516 2932.718 2075.5 2900.608 C 2052.698 2807.067 1815.903 2238.843 1775.561 2176.016 L 1731.71 2109.002 L 1861.508 2109.002 L 1993.06 2109.002 L 1975.52 2148.093 C 1963.242 2177.412 1968.503 2209.524 1998.323 2283.518 L 2038.665 2381.248 L 2201.79 2382.644 C 2289.491 2382.644 2370.177 2379.851 2377.193 2375.663 C 2407.012 2358.909 2454.37 2202.543 2445.6 2150.886 C 2436.83 2099.229 2438.584 2099.229 2492.959 2103.418 C 2522.777 2104.814 2613.987 2107.607 2694.673 2107.607 C 2838.503 2109.002 2842.011 2110.398 2812.193 2135.529 C 2796.407 2149.49 2701.689 2351.929 2601.709 2585.082 L 2419.29 3009.505 L 2224.592 3013.694 L 2028.141 3017.882 L 2057.959 2981.582 Z M 2273.706 2649.304 C 2303.524 2579.498 2328.08 2516.671 2328.08 2509.691 C 2328.08 2504.107 2273.706 2499.918 2207.052 2499.918 L 2084.27 2499.918 L 2100.056 2539.01 C 2108.827 2559.952 2131.629 2622.777 2152.678 2678.623 C 2171.972 2733.072 2196.528 2779.145 2205.298 2779.145 C 2212.314 2779.145 2243.886 2720.507 2273.706 2649.304 Z" style="fill: rgb(43, 62, 121);"/>
    <path d="M 3250.701 2992.752 C 3259.471 2978.791 3266.487 2744.24 3266.487 2471.996 L 3266.487 1976.369 L 3219.127 1896.791 C 3192.818 1852.115 3178.785 1815.815 3185.801 1815.815 C 3222.636 1815.815 3359.451 1861.888 3415.58 1892.602 C 3547.132 1965.201 3545.378 1962.409 3555.902 2492.938 C 3561.163 2754.013 3571.689 2978.791 3580.459 2992.752 C 3592.737 3015.09 3580.459 3016.486 3415.58 3016.486 C 3250.701 3016.486 3238.423 3015.09 3250.701 2992.752 Z" style="fill: rgb(43, 62, 121);"/>
    <path d="M 3817.252 2996.941 C 3829.53 2985.771 3894.429 2848.95 3961.082 2692.584 C 4189.107 2163.452 4199.631 2148.093 4376.788 2095.041 L 4467.998 2067.119 L 4483.784 2097.834 C 4492.554 2115.983 4555.7 2268.161 4624.106 2437.093 C 4690.759 2606.024 4769.691 2801.482 4797.756 2869.892 C 4825.82 2939.699 4845.114 2999.732 4841.607 3006.714 C 4838.098 3012.298 4783.723 3016.486 4720.579 3016.486 C 4613.582 3016.486 4608.32 3015.09 4625.86 2989.959 C 4634.63 2974.602 4643.401 2942.491 4643.401 2915.964 C 4643.401 2869.892 4434.672 2346.344 4415.376 2346.344 C 4404.852 2346.344 4143.502 2970.413 4143.502 2995.544 C 4143.502 3003.921 4069.833 3010.901 3969.854 3013.694 C 3819.006 3016.486 3799.712 3015.09 3817.252 2996.941 Z" style="fill: rgb(43, 62, 121);"/>
    <path d="M 3757.616 2335.176 C 3696.224 2325.403 3643.603 2275.142 3643.603 2226.277 C 3643.603 2162.055 3659.39 2138.321 3715.519 2115.983 C 3785.68 2086.664 3826.023 2089.456 3887.414 2131.34 C 3980.378 2192.77 3952.313 2296.084 3836.547 2329.59 C 3811.99 2335.176 3776.91 2337.967 3757.616 2335.176 Z" style="fill: rgb(43, 62, 121);"/>
    <path d="M 2927.959 2300.272 C 2842.011 2227.673 2910.418 2095.041 3033.2 2095.041 C 3094.592 2095.041 3187.555 2162.055 3187.555 2206.731 C 3187.555 2247.219 3141.95 2312.837 3108.623 2324.006 C 3045.479 2342.156 2964.793 2332.383 2927.959 2300.272 Z" style="fill: rgb(43, 62, 121);"/>
    <path d="M 1135.34 1606.395 L 1135.34 1466.783 L 1328.282 1466.783 L 1522.981 1466.783 L 1517.718 1603.604 L 1512.457 1739.028 L 1324.774 1743.216 L 1135.34 1747.405 L 1135.34 1606.395 Z" style="fill: rgb(43, 62, 121);"/>
    <path d="M 1714.169 1740.424 C 1708.908 1737.632 1707.153 1353.696 1710.662 888.785 L 1714.169 42.732 L 1833.444 42.732 C 1993.06 42.732 2198.282 86.011 2380.701 158.61 C 2645.56 263.319 2884.108 483.908 3005.136 733.816 C 3110.378 953.007 3117.395 994.891 3117.395 1385.808 L 3117.395 1747.405 L 2947.253 1743.216 L 2775.357 1739.028 L 2766.588 1376.035 C 2757.818 1043.756 2754.309 1006.061 2717.475 923.689 C 2642.051 757.549 2573.645 668.198 2443.846 566.279 C 2328.08 475.532 2159.693 391.764 2091.286 391.764 C 2068.483 391.764 2064.976 485.304 2061.468 1066.094 L 2056.205 1739.028 L 1889.572 1743.216 C 1796.609 1744.613 1717.677 1744.613 1714.169 1740.424 Z" style="fill: rgb(43, 62, 121);"/>
    <path d="M 1168.666 1302.04 C 1147.617 1299.248 1144.11 1228.044 1149.371 852.486 C 1152.88 474.135 1149.371 404.328 1128.323 397.348 C 1084.472 383.387 907.315 462.966 796.811 545.338 C 642.456 659.82 510.904 853.882 460.038 1038.171 L 451.267 1075.866 L 275.864 1075.866 C 74.15 1075.866 82.921 1084.244 126.772 932.066 C 228.506 578.845 495.117 288.451 842.416 151.629 C 1007.295 86.011 1144.11 56.693 1333.545 46.92 L 1503.685 38.543 L 1503.685 668.198 C 1503.685 1163.823 1498.424 1299.248 1482.637 1300.644 C 1393.181 1303.435 1189.715 1304.832 1168.666 1302.04 Z" style="fill: rgb(43, 62, 121);"/>
  </g>
</svg>