<?xml version="1.0" standalone="no"?>
<!DOCTYPE svg PUBLIC "-//W3C//DTD SVG 20010904//EN"
 "http://www.w3.org/TR/2001/REC-SVG-20010904/DTD/svg10.dtd">
<svg version="1.0" xmlns="http://www.w3.org/2000/svg"
 width="489.000000pt" height="384.000000pt" viewBox="0 0 489.000000 384.000000"
 preserveAspectRatio="xMidYMid meet">

<g transform="translate(0.000000,384.000000) scale(0.100000,-0.100000)"
fill="#000000" stroke="none">
<path d="M2710 3211 c-8 -5 -28 -15 -43 -22 -40 -18 -85 -84 -92 -134 -12 -74
34 -151 110 -186 84 -39 189 -11 249 64 26 33 31 47 31 95 0 72 -29 122 -90
158 -47 27 -138 41 -165 25z m88 -42 c91 -32 99 -222 11 -269 -50 -27 -120 13
-139 81 -22 74 19 177 76 192 10 2 19 5 20 6 1 0 15 -4 32 -10z"/>
<path d="M1360 3201 c-81 -26 -112 -57 -129 -131 -21 -94 20 -173 106 -206 52
-20 180 -15 194 7 5 8 9 47 9 87 l0 72 -46 0 -45 0 1 -57 c2 -82 2 -83 -20
-83 -31 0 -75 26 -93 54 -9 14 -19 49 -22 78 -7 62 14 115 55 136 25 13 80 12
113 -3 16 -7 18 -4 15 21 -3 28 -5 29 -58 31 -30 1 -66 -2 -80 -6z"/>
<path d="M1965 3202 l-40 -3 3 -137 c3 -148 10 -175 54 -198 37 -19 67 -18
107 7 31 18 35 19 43 5 6 -11 23 -16 51 -16 l42 0 0 170 0 170 -47 0 -48 0 0
-128 c0 -140 -10 -172 -55 -172 -48 0 -55 20 -55 165 0 74 -3 135 -7 137 -5 2
-26 2 -48 0z"/>
<path d="M1575 3030 l0 -170 50 0 50 0 0 62 c0 33 5 63 10 64 6 2 21 -19 35
-47 14 -28 34 -58 45 -65 19 -13 105 -20 105 -8 0 3 -11 20 -25 38 -14 18 -25
38 -25 44 0 7 -3 12 -7 12 -5 0 -16 14 -25 31 l-18 30 35 33 c38 36 43 62 20
105 -19 38 -30 41 -148 41 l-102 0 0 -170z m146 120 c30 -17 26 -85 -6 -106
-34 -22 -45 -11 -45 50 0 68 9 78 51 56z"/>
<path d="M2297 3028 c1 -116 5 -173 12 -172 6 1 28 2 49 2 l37 2 0 147 c0 156
5 173 44 134 24 -24 27 -65 7 -103 -16 -30 -11 -33 28 -18 68 26 90 107 41
155 -22 23 -31 25 -122 25 l-98 0 2 -172z"/>
<path d="M1885 2685 c-322 -60 -583 -336 -635 -671 -6 -39 -9 -178 -8 -324 l3
-255 105 0 105 0 2 255 c2 140 3 265 3 278 l0 22 193 -2 192 -3 1 -45 0 -45
102 -3 102 -3 0 406 0 405 -47 -1 c-27 -1 -79 -7 -118 -14z m-40 -385 l0 -145
-168 -5 c-93 -3 -171 -2 -173 1 -7 13 57 128 98 174 63 72 161 127 218 122
l25 -2 0 -145z"/>
<path d="M2366 2665 c11 -17 14 -35 10 -58 -13 -67 -148 -474 -171 -519 l-25
-48 74 0 75 0 -10 28 c-7 21 -4 44 13 97 l23 70 93 1 c50 0 96 -2 100 -5 17
-12 44 -124 39 -161 -5 -37 -4 -37 27 -34 17 1 69 3 115 3 82 1 84 2 67 20 -9
10 -63 155 -120 322 l-104 304 -111 3 -112 3 17 -26z m123 -238 c17 -50 31
-95 31 -100 0 -4 -31 -7 -69 -7 l-70 0 9 28 c5 15 18 60 30 100 11 39 25 72
30 72 4 0 22 -42 39 -93z"/>
<path d="M3046 2673 c5 -10 9 -178 9 -373 l0 -355 -27 -57 c-15 -32 -23 -58
-19 -58 21 0 99 33 131 55 75 52 74 50 80 430 3 187 9 348 14 358 7 16 0 17
-94 17 -94 0 -101 -1 -94 -17z"/>
<path d="M3369 2676 c7 -8 44 -106 82 -218 130 -379 136 -390 237 -428 l52
-20 9 22 c5 13 41 122 80 243 38 121 83 261 99 310 16 50 27 93 25 98 -2 4
-33 7 -69 7 -61 0 -64 -1 -54 -19 5 -11 10 -34 10 -53 0 -33 -119 -408 -130
-408 -6 0 -155 447 -155 465 0 6 -42 11 -99 13 -86 2 -97 1 -87 -12z"/>
<path d="M3335 2202 c-35 -7 -65 -43 -65 -78 0 -46 9 -63 41 -79 40 -21 63
-19 98 11 53 44 37 118 -29 142 -14 4 -34 6 -45 4z"/>
<path d="M2862 2177 c-49 -52 -10 -147 60 -147 35 0 88 48 88 80 0 29 -26 76
-45 84 -36 13 -82 6 -103 -17z"/>
<path d="M1840 1680 l0 -100 110 0 111 0 -3 98 -3 97 -107 3 -108 3 0 -101z"/>
<path d="M2170 1776 c-3 -2 -4 -277 -2 -610 l2 -606 68 0 c91 0 208 31 312 83
151 75 287 233 356 412 60 157 64 187 64 467 l0 259 -97 -3 -98 -3 -5 -260
c-5 -238 -7 -265 -28 -324 -43 -119 -82 -183 -156 -256 -66 -65 -162 -125
-201 -125 -13 0 -15 67 -17 483 l-3 482 -95 3 c-53 1 -98 1 -100 -2z"/>
<path d="M1859 1462 c-12 -2 -14 -53 -11 -322 2 -271 0 -321 -12 -326 -25 -10
-126 47 -189 106 -88 82 -163 221 -192 353 l-5 27 -100 0 c-115 0 -110 6 -85
-103 58 -253 210 -461 408 -559 94 -47 172 -68 280 -75 l97 -6 0 451 c0 355
-3 452 -12 453 -51 2 -167 3 -179 1z"/>
</g>
</svg>
